# xmcd
#
# Track frame offsets:
#	150
#	13708
#	26788
#	41898
#	60423
#	73025
#	90400
#	105565
#	120533
#	132815
#	161963
#
# Disc length: 2266 seconds
#
# Revision: 1
# Processed by: cddbd v1.5.2PL0 Copyright (c) Steve Scherf et al.
# Submitted via: EasyCDDAExtractor 7.0.6.1
#
DISCID=9008d80b
DTITLE=John Anderson - The Encore Collection
DYEAR=1997
DGENRE=Country
TTITLE0=Swingin'
TTITLE1=Straight Tequila Night
TTITLE2=Can't Get Away From You
TTITLE3=Bend It 'Til It Breaks
TTITLE4=Paradise
TTITLE5=When It Comes To You
TTITLE6=Love Comes Back Around
TTITLE7=Solid Ground
TTITLE8=My Kind Of Crazy
TTITLE9=Bad Love Gone Good
TTITLE10=Data
EXTD=
EXTT0=
EXTT1=
EXTT2=
EXTT3=
EXTT4=
EXTT5=
EXTT6=
EXTT7=
EXTT8=
EXTT9=
EXTT10=
PLAYORDER=
